<?xml version="1.0" standalone="no"?>
<!DOCTYPE svg PUBLIC "-//W3C//DTD SVG 20010904//EN"
 "http://www.w3.org/TR/2001/REC-SVG-20010904/DTD/svg10.dtd">
<svg version="1.0" xmlns="http://www.w3.org/2000/svg"
 width="813.000000pt" height="307.000000pt" viewBox="0 0 813.000000 307.000000"
 preserveAspectRatio="xMidYMid meet">
<metadata>
Created by potrace 1.10, written by Peter Selinger 2001-2011
</metadata>
<g transform="translate(0.000000,307.000000) scale(0.100000,-0.100000)"
fill="#000000" stroke="none">
<path d="M1227 2728 c5 -40 8 -233 8 -428 0 -195 -3 -388 -8 -427 l-7 -73 86
0 c78 0 85 2 79 18 -12 27 -19 329 -7 317 54 -56 237 -285 244 -307 l10 -28
104 0 c63 0 104 4 104 10 0 6 -6 10 -13 10 -7 0 -36 24 -63 53 -70 72 -284
326 -284 337 0 19 229 224 278 248 17 8 32 19 32 24 0 4 -38 8 -84 8 -80 0
-84 -1 -90 -24 -3 -13 -59 -71 -127 -131 l-121 -108 4 269 c2 148 8 277 12
287 7 15 0 17 -78 17 l-86 0 7 -72z"/>
<path d="M308 2763 l-97 -4 7 -32 c9 -42 9 -852 0 -894 l-8 -33 91 0 c90 0 91
0 84 23 -3 12 -9 92 -12 178 l-6 156 92 5 c76 5 102 11 156 37 117 58 175 151
175 281 0 90 -23 151 -76 204 -73 73 -154 89 -406 79z m205 -62 c84 -20 126
-93 127 -217 0 -45 -5 -96 -11 -115 -30 -89 -101 -138 -202 -139 l-57 0 2 233
3 232 40 6 c22 3 45 7 50 7 6 1 27 -2 48 -7z"/>
<path d="M931 2743 c-11 -10 -24 -32 -27 -50 -5 -27 -1 -37 25 -64 27 -26 37
-30 64 -25 65 13 89 85 42 131 -29 30 -74 33 -104 8z"/>
<path d="M2600 2195 l0 -525 25 0 25 0 0 525 0 525 -25 0 -25 0 0 -525z"/>
<path d="M3914 2460 l-1 -210 36 0 36 0 0 210 0 210 -35 0 -36 0 0 -210z"/>
<path d="M2893 2653 l-103 -4 0 -199 0 -200 38 0 38 0 -4 101 -4 101 58 -3
c58 -3 59 -3 62 25 l4 29 -61 -6 -61 -5 0 60 0 59 67 -2 c58 -2 68 0 74 17 10
25 11 34 2 32 -5 -1 -54 -4 -110 -5z"/>
<path d="M3792 2641 c-8 -4 -12 -19 -10 -32 2 -19 9 -24 33 -24 27 0 30 3 30
30 0 22 -5 31 -20 33 -11 1 -26 -2 -33 -7z"/>
<path d="M3072 2543 c-22 -4 -51 -47 -40 -59 4 -3 20 2 37 10 54 28 101 16
101 -26 0 -11 -10 -20 -27 -23 -106 -22 -143 -50 -143 -109 1 -65 37 -85 156
-85 l89 0 -3 107 c-2 59 -8 119 -13 134 -18 45 -81 65 -157 51z m98 -187 c0
-57 -8 -66 -54 -66 -67 0 -60 96 9 113 43 10 45 8 45 -47z"/>
<path d="M3405 2533 c-20 -11 -30 -12 -33 -4 -2 6 -20 11 -40 11 l-37 0 3
-145 3 -145 35 0 34 0 0 109 c0 102 2 111 22 125 32 22 65 20 79 -5 7 -14 10
-59 7 -125 l-4 -104 38 0 37 0 -6 103 -6 103 28 22 c30 24 51 27 75 12 12 -7
15 -33 15 -125 l-1 -115 39 0 c36 0 39 2 33 23 -3 12 -6 66 -6 120 0 95 -1 99
-29 128 -35 34 -62 36 -114 9 -37 -20 -37 -20 -69 0 -39 24 -63 25 -103 3z"/>
<path d="M3780 2395 l0 -145 34 0 35 0 3 145 3 145 -37 0 -38 0 0 -145z"/>
<path d="M4000 2531 c0 -6 4 -12 8 -15 5 -3 35 -61 66 -130 l57 -125 -34 -70
-33 -71 33 0 c21 0 33 5 33 13 0 14 126 321 154 376 l17 31 -34 0 c-31 0 -35
-3 -40 -32 -3 -18 -19 -62 -35 -98 l-30 -65 -36 79 c-20 43 -36 87 -36 97 0
16 -8 19 -45 19 -25 0 -45 -4 -45 -9z"/>
<path d="M2049 2486 c-94 -36 -167 -112 -205 -211 -27 -72 -25 -212 5 -280 35
-79 84 -130 159 -167 64 -32 72 -33 182 -33 96 0 122 3 160 21 40 19 48 28 69
83 13 34 20 65 17 68 -4 4 -25 -12 -49 -34 -61 -59 -101 -76 -177 -77 -87 -1
-143 29 -186 101 -33 56 -60 161 -45 176 5 5 118 7 256 5 l247 -3 -5 61 c-9
116 -77 223 -171 271 -62 32 -197 42 -257 19z m140 -56 c65 -18 124 -95 137
-179 l7 -41 -182 0 -182 0 6 38 c4 20 19 62 33 92 22 44 36 60 72 78 50 25 61
26 109 12z"/>
<path d="M907 2428 c4 -35 7 -162 7 -283 0 -121 -3 -248 -7 -282 l-8 -63 78 0
78 0 0 345 0 345 -78 0 -78 0 8 -62z"/>
<path d="M2795 1975 l0 -216 110 3 110 3 3 31 3 32 -43 -9 c-24 -4 -58 -8 -75
-9 l-33 0 0 190 0 190 -37 0 -38 0 0 -215z"/>
<path d="M3109 2073 c-16 -4 -44 -52 -35 -60 2 -2 18 3 35 11 39 21 85 20 106
0 27 -27 14 -48 -35 -56 -63 -11 -98 -27 -120 -56 -30 -37 -26 -88 9 -123 29
-28 30 -29 131 -26 l103 2 -2 113 c-1 63 -6 124 -11 136 -16 43 -58 66 -114
65 -28 -1 -58 -3 -67 -6z m121 -190 c0 -55 -21 -83 -61 -83 -57 0 -75 81 -26
115 12 8 36 15 54 15 33 0 33 -1 33 -47z"/>
<path d="M3324 2068 c3 -7 33 -79 68 -160 68 -159 84 -176 107 -110 8 20 23
57 33 82 l19 45 34 -80 c46 -111 55 -108 114 35 26 63 55 129 64 147 24 46 22
55 -15 51 -24 -2 -34 -9 -36 -23 -4 -26 -53 -158 -62 -168 -4 -4 -22 31 -40
78 -18 47 -38 85 -45 85 -7 0 -29 -39 -48 -87 l-35 -88 -22 50 c-12 28 -29 74
-38 103 l-16 52 -44 0 c-32 0 -43 -4 -38 -12z"/>
</g>
</svg>
